<svg xmlns="http://www.w3.org/2000/svg" viewBox="0 0 116.85 39.15"><defs><style>.cls-1{fill:#222e3e;}.cls-2{fill:#e1891d;}</style></defs><title>자산 1</title><g id="레이어_2" data-name="레이어 2"><g id="레이어_2-2" data-name="레이어 2"><path class="cls-1" d="M25.26,38.45a1,1,0,0,0,.61-.14.46.46,0,0,0,.19-.38v-.06a.42.42,0,0,0-.2-.4,1.73,1.73,0,0,0-.57-.22l-.55-.13a1.59,1.59,0,0,1-.5-.2,1,1,0,0,1-.36-.36,1.08,1.08,0,0,1-.14-.61v-.08a1.11,1.11,0,0,1,.08-.42,1.07,1.07,0,0,1,.26-.39,1.41,1.41,0,0,1,.48-.3,2,2,0,0,1,.75-.12,3.11,3.11,0,0,1,.69.07,2.07,2.07,0,0,1,.67.29l-.36.6a1.91,1.91,0,0,0-.5-.22,2.54,2.54,0,0,0-.49-.05,1.25,1.25,0,0,0-.36.05.59.59,0,0,0-.25.13.47.47,0,0,0-.15.17.41.41,0,0,0,0,.18v.07a.42.42,0,0,0,.08.26.54.54,0,0,0,.2.16,1.17,1.17,0,0,0,.3.1l.37.08a3.31,3.31,0,0,1,.65.21,1.61,1.61,0,0,1,.43.29,1,1,0,0,1,.23.35,1.07,1.07,0,0,1,.07.41v.08a1.38,1.38,0,0,1-.13.61,1.07,1.07,0,0,1-.36.4,1.42,1.42,0,0,1-.52.21,2.91,2.91,0,0,1-.6.06,2.42,2.42,0,0,1-.47,0,3,3,0,0,1-.43-.1L24,38.85a2,2,0,0,1-.3-.2L24,38a2,2,0,0,0,.51.3A2,2,0,0,0,25.26,38.45Z"/><path class="cls-1" d="M47.59,34.64a2.44,2.44,0,0,1,.71.1,1.66,1.66,0,0,1,.59.34,1.62,1.62,0,0,1,.4.58,2.26,2.26,0,0,1,.15.87v.73a2.31,2.31,0,0,1-.15.88,1.52,1.52,0,0,1-1,.91,2.34,2.34,0,0,1-.71.1,2.41,2.41,0,0,1-.72-.1,1.63,1.63,0,0,1-.59-.33,1.66,1.66,0,0,1-.4-.58,2.31,2.31,0,0,1-.15-.88v-.73a2.26,2.26,0,0,1,.15-.87,1.65,1.65,0,0,1,.41-.58,1.58,1.58,0,0,1,.59-.34A2.34,2.34,0,0,1,47.59,34.64Zm0,3.8a1.42,1.42,0,0,0,.42-.06.7.7,0,0,0,.34-.2,1.22,1.22,0,0,0,.23-.39,2.25,2.25,0,0,0,.08-.63v-.53a2.25,2.25,0,0,0-.08-.63,1.22,1.22,0,0,0-.23-.39.7.7,0,0,0-.34-.2,1.5,1.5,0,0,0-.84,0,.7.7,0,0,0-.34.2,1.22,1.22,0,0,0-.23.39,2.25,2.25,0,0,0-.08.63v.53a2.25,2.25,0,0,0,.08.63,1.22,1.22,0,0,0,.23.39.7.7,0,0,0,.34.2A1.42,1.42,0,0,0,47.59,38.44Z"/><path class="cls-1" d="M68.51,39.09V34.7h2.82v.66h-2v1.25H71.2v.66H69.28v1.82Z"/><path class="cls-1" d="M93.19,34.7v.66H91.91v3.73h-.78V35.36H89.84V34.7Z"/><path class="cls-2" d="M11.36,11.27c-.76,4.84-.91,8.81-5.27,8.81H2.58L0,27.47H12.05l3.07-9.66h3c1.64,0,2.2-1.68,2.3-2.64s1-8.23,1-8.23l-4.76,0L17.14,4c3.44,0,5.07-4,5.07-4H13.06S12.15,6.27,11.36,11.27Z"/><path class="cls-1" d="M34.83,0h-1.4V0a7.33,7.33,0,0,0-7.2,6.27c-.47,2.86-.51,3.37-.76,5-.76,4.84-.91,8.81-5.27,8.81H16.69l-2.58,7.39H21c2.91,0,9.59-.29,11.14-8.54h3.72v8.54H44V0ZM33,13.24l.06-.4c0-.15.07-.31.09-.48.63-4.53,2.75-4.15,2.75-4.15v5Z"/><path class="cls-1" d="M60,.5A13.68,13.68,0,0,0,49.83,4.57a14.24,14.24,0,0,0-4,10.34,13.41,13.41,0,0,0,3.6,9.73,12.87,12.87,0,0,0,9.59,3.7,16.67,16.67,0,0,0,7.47-1.48l.79-.41V18.7L65.12,20a10,10,0,0,1-5.21,1.37,5.83,5.83,0,0,1-4.52-1.78,7,7,0,0,1-1.71-5A7.31,7.31,0,0,1,55.5,9.38a6.18,6.18,0,0,1,4.79-1.91A9.44,9.44,0,0,1,65.13,8.7L67.31,10V1.9l-.91-.36A17.47,17.47,0,0,0,60,.5Z"/><path class="cls-1" d="M82,.5a12.68,12.68,0,0,0-9.75,4,14.49,14.49,0,0,0-3.66,10.21,13.74,13.74,0,0,0,3.6,9.74,12.4,12.4,0,0,0,9.44,3.88,12.55,12.55,0,0,0,9.63-4,14.5,14.5,0,0,0,3.62-10.17,14,14,0,0,0-3.52-9.78A12.15,12.15,0,0,0,82,.5Zm3.58,19.18a4.65,4.65,0,0,1-3.89,1.69,4.41,4.41,0,0,1-3.77-1.78,8.16,8.16,0,0,1-1.51-5.14,8.17,8.17,0,0,1,1.54-5.16,4.63,4.63,0,0,1,3.9-1.82A4.39,4.39,0,0,1,85.6,9.18,8.65,8.65,0,0,1,87,14.52,8.08,8.08,0,0,1,85.57,19.68Z"/><path class="cls-1" d="M114.94,14.45a6.93,6.93,0,0,0-1.56-1.24,6.81,6.81,0,0,0,.88-.9A6.66,6.66,0,0,0,115.82,8a6.29,6.29,0,0,0-2.71-5.33A11.38,11.38,0,0,0,106.45.9H96.79v27h10.06A10.9,10.9,0,0,0,114,25.65a7.83,7.83,0,0,0,2.85-6.3A6.82,6.82,0,0,0,114.94,14.45Zm-10.57,2.87H106c3.07,0,3.07,1.23,3.07,2a1.78,1.78,0,0,1-.62,1.52,3.59,3.59,0,0,1-2.28.61h-1.76Zm3.1-7.07a3.1,3.1,0,0,1-2,.56h-1.08V7.39h.94c2.71,0,2.71,1,2.71,1.46A1.64,1.64,0,0,1,107.47,10.25Z"/></g></g></svg>